<svg xmlns="http://www.w3.org/2000/svg" width="1200" height="630" viewBox="0 0 1200 630" role="img" aria-labelledby="title desc">
  <title id="title">Kontour AI</title>
  <desc id="desc">Inspectability infrastructure for AI-assisted work.</desc>
  <defs>
    <linearGradient id="edge" x1="0" y1="0" x2="1" y2="1">
      <stop offset="0" stop-color="#c9a35a" stop-opacity="0.9"/>
      <stop offset="0.48" stop-color="#5a90c8" stop-opacity="0.45"/>
      <stop offset="1" stop-color="#6fbf95" stop-opacity="0.65"/>
    </linearGradient>
    <pattern id="contours" width="180" height="140" patternUnits="userSpaceOnUse">
      <path d="M-20 90 C35 35 85 35 140 88 S245 142 300 86" fill="none" stroke="#ffffff" stroke-opacity="0.055" stroke-width="2"/>
      <path d="M-35 58 C28 12 88 13 151 60 S255 107 318 58" fill="none" stroke="#ffffff" stroke-opacity="0.035" stroke-width="1.4"/>
      <path d="M-25 122 C34 75 92 74 151 121 S256 166 315 119" fill="none" stroke="#c9a35a" stroke-opacity="0.08" stroke-width="1.2"/>
    </pattern>
  </defs>

  <rect width="1200" height="630" fill="#07090e"/>
  <rect width="1200" height="630" fill="url(#contours)"/>
  <rect x="54" y="54" width="1092" height="522" rx="18" fill="#0e1218" stroke="#2b3038" stroke-width="2"/>
  <path d="M54 154 H1146" stroke="url(#edge)" stroke-width="3"/>

  <g transform="translate(102 112)">
    <path d="M0 0 L0 96 M0 48 L62 0 M0 48 L62 96" stroke="#c9a35a" stroke-width="8" stroke-linecap="round" stroke-linejoin="round"/>
    <ellipse cx="52" cy="48" rx="62" ry="62" fill="none" stroke="#c9a35a" stroke-opacity="0.22" stroke-width="4"/>
    <ellipse cx="52" cy="48" rx="38" ry="38" fill="none" stroke="#c9a35a" stroke-opacity="0.16" stroke-width="3"/>
  </g>

  <text x="102" y="290" fill="#f3efe6" font-family="Georgia, 'Times New Roman', serif" font-size="92" font-weight="400">Kontour AI</text>
  <text x="104" y="364" fill="#c9a35a" font-family="Arial, sans-serif" font-size="31" font-weight="600">Show the work behind AI.</text>
  <text x="104" y="430" fill="#b7b8b5" font-family="Arial, sans-serif" font-size="34">Inspectability infrastructure for AI-assisted work.</text>

  <g transform="translate(104 500)">
    <rect width="214" height="44" rx="22" fill="#151a22" stroke="#2b3038"/>
    <circle cx="28" cy="22" r="5" fill="#6fbf95"/>
    <text x="46" y="29" fill="#d8d3c8" font-family="'Courier New', monospace" font-size="18">claims</text>
    <rect x="238" width="222" height="44" rx="22" fill="#151a22" stroke="#2b3038"/>
    <circle cx="266" cy="22" r="5" fill="#5a90c8"/>
    <text x="284" y="29" fill="#d8d3c8" font-family="'Courier New', monospace" font-size="18">gates</text>
    <rect x="484" width="250" height="44" rx="22" fill="#151a22" stroke="#2b3038"/>
    <circle cx="512" cy="22" r="5" fill="#c9a35a"/>
    <text x="530" y="29" fill="#d8d3c8" font-family="'Courier New', monospace" font-size="18">evidence</text>
  </g>
</svg>
